<svg width="53" height="53" viewBox="0 0 53 53" fill="none" xmlns="http://www.w3.org/2000/svg">
<path d="M7.4151 40.4852C7.4151 40.136 7.69892 39.8522 8.04816 39.8522H15.9983C16.3475 39.8522 16.6314 40.136 16.6314 40.4852C16.6314 40.8344 16.3475 41.1183 15.9983 41.1183H8.04816C7.69892 41.1183 7.4151 40.8344 7.4151 40.4852ZM19.4274 44.2887H8.04816C7.69892 44.2887 7.4151 44.5726 7.4151 44.9218C7.4151 45.271 7.69892 45.5548 8.04816 45.5548H19.4274C19.7766 45.5548 20.0604 45.271 20.0604 44.9218C20.0604 44.5726 19.7766 44.2887 19.4274 44.2887ZM52.4107 11.6458V14.4512C52.4107 15.1328 51.8779 15.691 51.1963 15.7226L49.5018 15.8017C49.2866 16.5371 48.9933 17.244 48.624 17.9098L49.7677 19.1716C50.2267 19.6749 50.2087 20.4472 49.7265 20.9294L47.743 22.9129C47.2608 23.3951 46.4895 23.413 45.9852 22.9541L44.7307 21.8104C44.679 21.8389 44.6273 21.8653 44.5756 21.8927V49.5346C44.5756 51.1204 43.2852 52.4107 41.6994 52.4107H3.37619C1.79038 52.4107 0.5 51.1204 0.5 49.5346V15.6635C0.5 14.0778 1.79038 12.7874 3.37619 12.7874H27.3153V11.6469C27.3153 10.9653 27.8481 10.4071 28.5286 10.3755L30.2231 10.2964C30.4383 9.56098 30.7317 8.85408 31.1009 8.18833L29.9583 6.9254C29.4993 6.42213 29.5172 5.64982 29.9994 5.16765L31.983 3.18411C32.4652 2.70194 33.2365 2.684 33.7408 3.14296L34.9953 4.28561C35.6685 3.91739 36.3754 3.62302 37.1055 3.41517L37.1888 1.71439C37.2205 1.03387 37.7786 0.5 38.4602 0.5H41.2657C41.9473 0.5 42.5055 1.03281 42.5371 1.71439L42.6163 3.40884L42.4474 4.02395L42.6215 3.41517C43.3517 3.62407 44.0596 3.91739 44.7243 4.28666L45.9862 3.14296C46.4895 2.684 47.2618 2.70194 47.744 3.18411L49.7276 5.16765C50.2098 5.64982 50.2277 6.42213 49.7688 6.9254L48.6261 8.17989C48.9954 8.85302 49.2887 9.56098 49.4976 10.29L51.1984 10.3734C51.8779 10.4061 52.4107 10.9642 52.4107 11.6458ZM27.3153 14.0524H17.8162V30.367L22.0725 25.75C22.1928 25.6203 22.3616 25.5464 22.5378 25.5464C22.714 25.5464 22.8839 25.6203 23.0031 25.75L27.2646 30.3723L27.3153 14.4481V14.0524ZM43.3105 22.455C43.0826 22.5384 42.8537 22.6144 42.6205 22.6808L42.5371 24.3816C42.5055 25.0621 41.9473 25.596 41.2657 25.596H38.4602C37.7786 25.596 37.2205 25.0632 37.1888 24.3816L37.1097 22.6872C36.3743 22.4719 35.6674 22.1786 35.0016 21.8093L33.7397 22.953C33.2365 23.412 32.4641 23.3941 31.9819 22.9119L29.9984 20.9283C29.5162 20.4462 29.4983 19.6749 29.9572 19.1706L31.1009 17.9161C30.7317 17.243 30.4383 16.535 30.2294 15.806L28.5772 15.7247L28.5255 31.9898C28.5244 32.2504 28.364 32.4835 28.1214 32.5774C27.8787 32.6713 27.6033 32.608 27.426 32.416L22.5367 27.1121L17.6474 32.416C17.525 32.5489 17.3552 32.6196 17.1821 32.6196C17.1051 32.6196 17.027 32.6059 16.9521 32.5764C16.7094 32.4814 16.5491 32.2472 16.5491 31.9866V14.0524H3.37619C2.4878 14.0524 1.76611 14.7752 1.76611 15.6625V49.5335C1.76611 50.4219 2.48886 51.1436 3.37619 51.1436H41.6994C42.5878 51.1436 43.3095 50.4208 43.3095 49.5335V22.455H43.3105ZM51.1446 11.6458L49.4438 11.5603C48.8888 11.535 48.4319 11.1731 48.279 10.6382C48.0964 10.0009 47.8411 9.38373 47.5182 8.80344C47.2523 8.32549 47.3209 7.73148 47.6902 7.32739L48.8339 6.0729L46.8504 4.07987L45.5842 5.22251C45.1728 5.59706 44.5935 5.66459 44.1082 5.39449C43.5279 5.07164 42.9096 4.81525 42.2723 4.63378C41.7384 4.4808 41.3765 4.02395 41.3501 3.46898L41.271 1.77453L38.4602 1.76714L38.3748 3.46792C38.3495 4.02289 37.9876 4.47974 37.4537 4.63273C36.8164 4.81525 36.1992 5.07164 35.6178 5.39343C35.1399 5.65931 34.5458 5.59073 34.1417 5.22146L32.8872 4.07881L30.8941 6.06235L32.0368 7.32739C32.4114 7.73781 32.4789 8.3181 32.2088 8.80344C31.8859 9.38373 31.6295 10.002 31.447 10.6393C31.294 11.1731 30.8372 11.535 30.2822 11.5614L28.5877 11.6405L28.5814 14.4523L30.2822 14.5378C30.8372 14.5631 31.294 14.925 31.447 15.4599C31.6295 16.0961 31.8849 16.7144 32.2088 17.2947C32.4747 17.7726 32.4061 18.3666 32.0368 18.7707L30.8931 20.0252L32.8767 22.0182L34.1407 20.8756C34.3844 20.654 34.6862 20.5401 34.9932 20.5401C35.2042 20.5401 35.4184 20.5939 35.6168 20.7047C36.1971 21.0275 36.8153 21.2839 37.4526 21.4654C37.9865 21.6184 38.3484 22.0752 38.3748 22.6302L38.4539 24.3246L41.2657 24.331L41.3512 22.6302C41.3765 22.0752 41.7384 21.6184 42.2734 21.4654C42.9106 21.2829 43.5279 21.0275 44.1082 20.7047C44.5946 20.4346 45.1738 20.5021 45.5842 20.8766L46.8388 22.0204L48.8318 20.0368L47.6892 18.7728C47.3209 18.3687 47.2513 17.7747 47.5172 17.2968C47.84 16.7165 48.0964 16.0982 48.2779 15.461C48.4309 14.9271 48.8877 14.5652 49.4427 14.5388L51.1372 14.4597L51.1446 11.6458ZM46.997 13.048C46.997 16.9813 43.7969 20.1824 39.8625 20.1824C35.9291 20.1824 32.7279 16.9824 32.7279 13.048C32.7279 9.11363 35.928 5.91359 39.8625 5.91359C43.7969 5.91464 46.997 9.11468 46.997 13.048ZM44.5956 16.5118L44.2685 16.323C43.9657 16.1478 43.8623 15.7606 44.0364 15.4578C44.2116 15.155 44.5988 15.0516 44.9016 15.2257L45.2297 15.4156C45.4692 14.8754 45.6296 14.2919 45.6961 13.681H45.3162C44.967 13.681 44.6832 13.3972 44.6832 13.048C44.6832 12.6988 44.967 12.415 45.3162 12.415H45.6961C45.6307 11.8041 45.4692 11.2206 45.2297 10.6804L44.9016 10.8703C44.8024 10.9284 44.6927 10.9547 44.5861 10.9547C44.3677 10.9547 44.1546 10.8408 44.0375 10.6382C43.8623 10.3354 43.9668 9.94819 44.2696 9.77305L44.5967 9.58419C44.2411 9.09886 43.8127 8.6705 43.3274 8.31494L43.1385 8.64201C43.0214 8.84458 42.8083 8.95853 42.5899 8.95853C42.4823 8.95853 42.3736 8.9311 42.2744 8.87413C41.9716 8.69898 41.8682 8.31177 42.0423 8.00896L42.2322 7.68084C41.692 7.44133 41.1085 7.28096 40.4976 7.21449V7.59432C40.4976 7.94355 40.2138 8.22737 39.8646 8.22737C39.5153 8.22737 39.2315 7.94355 39.2315 7.59432V7.21449C38.6206 7.27991 38.0371 7.44133 37.4969 7.68084L37.6869 8.00896C37.862 8.31177 37.7575 8.69898 37.4547 8.87413C37.3556 8.93215 37.2458 8.95853 37.1393 8.95853C36.9209 8.95853 36.7077 8.84458 36.5906 8.64201L36.4017 8.31494C35.9164 8.6705 35.488 9.09886 35.1325 9.58419L35.4595 9.77305C35.7624 9.94819 35.8658 10.3354 35.6917 10.6382C35.5746 10.8408 35.3614 10.9547 35.143 10.9547C35.0354 10.9547 34.9267 10.9273 34.8275 10.8693L34.4994 10.6794C34.2599 11.2196 34.0995 11.803 34.0331 12.4139H34.4129C34.7621 12.4139 35.0459 12.6977 35.0459 13.0469C35.0459 13.3962 34.7621 13.68 34.4129 13.68H34.0331C34.0985 14.2909 34.2599 14.8743 34.4994 15.4145L34.8275 15.2246C35.1304 15.0495 35.5176 15.1539 35.6927 15.4567C35.8679 15.7595 35.7634 16.1468 35.4606 16.3219L35.1335 16.5108C35.4891 16.9961 35.9175 17.4244 36.4028 17.78L36.5917 17.4529C36.7668 17.1501 37.154 17.0467 37.4568 17.2208C37.7597 17.396 37.8631 17.7832 37.689 18.086L37.499 18.4141C38.0393 18.6536 38.6227 18.814 39.2336 18.8804V18.5006C39.2336 18.1514 39.5174 17.8676 39.8667 17.8676C40.2159 17.8676 40.4997 18.1514 40.4997 18.5006V18.8804C41.1106 18.815 41.6941 18.6536 42.2343 18.4141L42.0444 18.086C41.8693 17.7832 41.9737 17.396 42.2765 17.2208C42.5793 17.0457 42.9665 17.1501 43.1417 17.4529L43.3306 17.78C43.8117 17.4255 44.2401 16.9971 44.5956 16.5118ZM42.1541 12.415H40.4966V9.64855C40.4966 9.29932 40.2127 9.0155 39.8635 9.0155C39.5143 9.0155 39.2305 9.29932 39.2305 9.64855V13.0491C39.2305 13.3983 39.5143 13.6821 39.8635 13.6821H42.1541C42.5034 13.6821 42.7872 13.3983 42.7872 13.0491C42.7872 12.6998 42.5034 12.415 42.1541 12.415Z" fill="#0C195E"/>
</svg>
