<svg width="52" height="53" viewBox="0 0 52 53" fill="none" xmlns="http://www.w3.org/2000/svg">
<path d="M50.8735 19.8463H46.7389L45.3386 16.464L48.2621 13.5399C48.4649 13.3372 48.5788 13.0618 48.5788 12.7748C48.5788 12.4885 48.4649 12.213 48.2621 12.0103L40.444 4.19371C40.0212 3.77157 39.3372 3.77157 38.915 4.19371L35.9915 7.11649L32.6092 5.71559V1.58173C32.6092 0.984557 32.1253 0.5 31.5274 0.5H20.4718C19.8746 0.5 19.3907 0.983914 19.3907 1.58173V5.71559L16.0077 7.11649L13.0848 4.19371C12.6621 3.77157 11.978 3.77157 11.5552 4.19371L3.73774 12.011C3.53503 12.2137 3.42113 12.4891 3.42113 12.7755C3.42113 13.0625 3.53503 13.3372 3.73774 13.5406L6.6606 16.4647L5.26031 19.8469H1.1257C0.527871 19.8469 0.0439453 20.3308 0.0439453 20.928V31.9834C0.0439453 32.5805 0.527871 33.0651 1.1257 33.0651H5.26031L6.6606 36.4473L3.73774 39.3714C3.53503 39.5741 3.42113 39.8495 3.42113 40.1359C3.42113 40.4229 3.53503 40.6977 3.73774 40.9004L11.5552 48.717C11.978 49.1398 12.6621 49.1398 13.0848 48.717L16.0077 45.7936L19.3907 47.1945V51.329C19.3907 51.9262 19.8746 52.4107 20.4718 52.4107H31.5274C32.1253 52.4107 32.6092 51.9262 32.6092 51.329V47.1945L35.9915 45.7936L38.915 48.717C39.3378 49.1398 40.0219 49.1398 40.444 48.717L48.2615 40.9004C48.4642 40.6977 48.5781 40.4223 48.5781 40.1359C48.5781 39.8495 48.4642 39.5741 48.2615 39.3714L45.338 36.4473L46.7383 33.0651H50.8729C51.4707 33.0651 51.9547 32.5812 51.9547 31.9834V20.9273C51.9547 20.3302 51.4714 19.8463 50.8735 19.8463ZM49.7918 30.901H46.0163C45.5793 30.901 45.1842 31.1642 45.0169 31.5683L43.0632 36.2858C42.8952 36.6906 42.9879 37.1552 43.2974 37.4641L45.9674 40.134L39.6789 46.4216L37.0089 43.7517C36.6994 43.4422 36.2361 43.3508 35.8307 43.5169L31.113 45.4712C30.7095 45.6385 30.4457 46.033 30.4457 46.4705V50.246H21.5536V46.4705C21.5536 46.0336 21.2897 45.6385 20.8862 45.4712L16.1686 43.5169C15.7638 43.3496 15.2992 43.4422 14.9897 43.7517L12.3197 46.4216L6.03189 40.134L8.70184 37.4641C9.01138 37.1546 9.10404 36.6899 8.93673 36.2858L6.98301 31.5683C6.81569 31.1642 6.42121 30.901 5.98362 30.901H2.2081V22.0091H5.98362C6.42057 22.0091 6.81569 21.7452 6.98301 21.3418L8.93673 16.6242C9.10469 16.2195 9.01202 15.7549 8.70184 15.4453L6.03189 12.7755L12.3197 6.48844L14.9897 9.15704C15.2992 9.46785 15.7651 9.55923 16.1686 9.39192L20.8862 7.4376C21.291 7.27029 21.5536 6.87582 21.5536 6.43824V2.66346H30.4463V6.43824C30.4463 6.87582 30.7095 7.26965 31.1137 7.4376L35.8313 9.39192C36.2361 9.55923 36.7007 9.46785 37.0096 9.15704L39.6795 6.48844L45.968 12.7755L43.298 15.4453C42.9885 15.7549 42.8958 16.2195 43.0638 16.6242L45.0175 21.3418C45.1848 21.7459 45.5793 22.0091 46.0169 22.0091H49.7924L49.7918 30.901ZM21.1082 33.1488L21.8077 32.3096L21.8824 32.2195L23.2016 33.0992L24.3181 33.8437C24.7454 34.1288 25.3175 34.0747 25.6824 33.7086L25.7396 33.6513L29.2442 30.1468L30.6426 31.5451C30.7185 31.6211 30.8061 31.6796 30.8981 31.7298C31.0841 31.8309 31.2951 31.8817 31.5139 31.8566C31.8357 31.8251 32.1272 31.65 32.3074 31.3804L33.8885 29.0078L35.3641 26.7942L35.7328 26.2414L36.6331 24.8913C36.9645 24.3945 36.8307 23.7227 36.3332 23.392C35.8731 23.0863 35.2727 23.1796 34.922 23.5844C33.7058 19.8167 30.167 17.0824 25.9996 17.0824C20.8309 17.0824 16.6268 21.2864 16.6268 26.4544C16.6268 28.7536 17.4601 30.8605 18.8392 32.493L15.4356 36.5767C15.1673 36.8991 15.1094 37.3476 15.2876 37.7279C15.4652 38.1076 15.8475 38.3502 16.2664 38.3502H35.7328C36.3307 38.3502 36.8146 37.8663 36.8146 37.2691C36.8146 36.6719 36.3307 36.1874 35.7328 36.1874H18.5747L20.4165 33.9782L21.1082 33.1488ZM25.9996 19.2452C29.8723 19.2452 33.0333 22.3167 33.1942 26.15L31.2391 29.0831L30.0087 27.8534C29.5866 27.4306 28.9019 27.4306 28.4797 27.8534L24.7808 31.5522L22.2736 29.881C21.8142 29.5741 21.197 29.6635 20.8425 30.0889L20.2549 30.7942C19.3392 29.585 18.789 28.085 18.789 26.455C18.7896 22.4801 22.0246 19.2452 25.9996 19.2452ZM25.2422 11.0013C25.0363 10.796 24.9288 10.5258 24.9288 10.2336C24.9288 9.63838 25.4153 9.15189 26.0099 9.15189C26.3027 9.15189 26.573 9.27094 26.7783 9.46592C26.9842 9.6712 27.0917 9.94147 27.0917 10.2336C27.0917 10.8282 26.6045 11.3153 26.0099 11.3153C25.719 11.3147 25.4481 11.2066 25.2422 11.0013ZM40.1332 20.15C40.2529 19.8797 40.4588 19.6744 40.7291 19.5657C41.2806 19.3488 41.9183 19.6416 42.1352 20.1822C42.2324 20.4524 42.2324 20.7555 42.1127 21.0149C41.9943 21.2851 41.7883 21.4801 41.5181 21.5882C41.3881 21.632 41.2581 21.6642 41.1178 21.6642C40.6744 21.6642 40.2748 21.3829 40.1126 20.9718C40.0155 20.7015 40.0155 20.4093 40.1332 20.15ZM43.217 24.6597C43.271 25.2543 43.3032 25.8598 43.3032 26.455C43.3032 29.7318 42.383 32.9222 40.6429 35.6796V35.6906C40.437 36.004 40.0914 36.188 39.7233 36.188C39.5187 36.188 39.3121 36.134 39.139 36.0259C38.6415 35.7015 38.4903 35.031 38.8044 34.5336C40.3289 32.1217 41.1403 29.3212 41.1403 26.455C41.1403 25.9248 41.1075 25.3952 41.0644 24.8868C41.0316 24.5947 41.1185 24.3141 41.2916 24.0869C41.475 23.8701 41.7349 23.7298 42.0265 23.697C42.6217 23.632 43.1513 24.076 43.217 24.6597ZM39.0418 17.8894C38.6962 17.8894 38.3713 17.7272 38.166 17.446C36.1543 14.7317 33.2559 12.7414 30.0017 11.8443C29.7198 11.769 29.492 11.5953 29.3414 11.3366C29.2011 11.0875 29.1683 10.796 29.2442 10.5251C29.3955 9.95177 30.0017 9.60621 30.5738 9.75743C34.2836 10.7742 37.5926 13.0444 39.8958 16.1481C39.9067 16.1481 39.9067 16.159 39.9067 16.159C40.2632 16.6352 40.1667 17.316 39.6795 17.6732C39.4955 17.8141 39.269 17.8894 39.0418 17.8894ZM13.173 34.511C13.4973 35.0194 13.3468 35.679 12.8384 36.0033C12.6646 36.1114 12.4703 36.1661 12.2644 36.1661C11.8866 36.1661 11.5398 35.9827 11.3454 35.6578C9.615 32.9004 8.69605 29.7208 8.69605 26.455C8.69605 25.8604 8.72887 25.2543 8.79322 24.6378C8.79322 24.6275 8.79322 24.6275 8.79322 24.6166C8.85757 24.0438 9.37754 23.6108 9.98245 23.6757C10.2643 23.6976 10.523 23.8379 10.707 24.0651C10.8917 24.2922 10.967 24.5728 10.9458 24.8546C10.8802 25.3842 10.8596 25.9248 10.8596 26.455C10.8589 29.3206 11.6595 32.0998 13.173 34.511ZM13.8436 17.4357C13.6376 17.706 13.3133 17.8688 12.9684 17.8688C12.7412 17.8688 12.514 17.7928 12.3294 17.6526C12.0919 17.4788 11.9407 17.2304 11.8976 16.9499C11.8647 16.6577 11.9304 16.3765 12.1022 16.1384C14.4169 13.0341 17.7362 10.7632 21.457 9.75807C22.0188 9.60685 22.6257 9.95241 22.7762 10.5148C22.8522 10.796 22.82 11.0882 22.6791 11.3372C22.5278 11.5856 22.3013 11.7697 22.0188 11.845C18.7639 12.7201 15.8661 14.7105 13.8436 17.4357ZM9.88527 20.9936C9.77781 20.7234 9.76687 20.4421 9.87498 20.1719V20.1609C10.0912 19.6204 10.7186 19.3398 11.2804 19.5554C11.8319 19.7716 12.1022 20.399 11.8866 20.9505C11.7245 21.3617 11.3235 21.6429 10.8802 21.6429C10.7502 21.6429 10.6099 21.6107 10.4915 21.567C10.2212 21.4582 10.005 21.253 9.88527 20.9936Z" fill="#0C195E"/>
</svg>
